<svg
    fill="none"
    width="848"
    height="693.2"
    xmlns="http://www.w3.org/2000/svg"
>
    <path
        fill="rgb(147, 213, 0)"
        d="m 271.33615,182.1325
            c 48.32371,-71.47513 134.54768,-118.13251 235.59139,-118.13251
            c 156.35185,0 277.07249,111.67989 277.07249,253.7438l0,297.81304
            c -0.03829,7.47546 -6.0683,13.53702 -13.5434,13.61431l-124.33695,0
            c -3.60389,0.00957 -7.06171,-1.42489 -9.59986,-3.98325
            c -2.5385,-2.55836 -3.94602,-6.02717 -3.90809,-9.63106l0,-277.10795
            c 0,-61.54803 -47.15373,-131.39228 -125.6842,-131.39228
            c -82.25313,0 -125.64874,69.84425 -125.64874,131.39228l0,277.03704
            c -0.07658,7.47333 -6.10588,13.51823 -13.57886,13.61431l-124.3724,0
            c -3.6007,0.02872 -7.06207,-1.38909 -9.60837,-3.93503
            c -2.54595,-2.5463 -3.96375,-6.00767 -3.93503,-9.60837l0,-268.1381
            c -0.09183,-8.05868 -5.56698,-15.0587 -13.36613,-17.0888
            c -109.33993,-29.88767 -149.6156,-113.34623 -152.41646,-232.82598
            c -0.08261,-5.56343 3.21106,-10.62306 8.33167,-12.79887
            c 1.6713,-0.7066 3.4681,-1.06858 5.28264,-1.06362l98.10103,0l0,0.67362l29.67494,0
            c 7.27337,0.08793 13.20694,5.85025 13.50795,13.11796
            c 1.41816,48.89097 11.20344,75.16234 34.28395,89.09574
            c 6.24273,3.59432 14.20852,1.64187 18.08151,-4.43174l0.07091,0.03545z
        "
    />
</svg>